<svg width="343" height="77" viewBox="0 0 343 77" fill="none" xmlns="http://www.w3.org/2000/svg">
<path d="M117.684 26.728V31.66H107.388V36.988H115.092V41.776H107.388V52H101.232V26.728H117.684ZM140.18 34.864C140.18 36.328 139.844 37.672 139.172 38.896C138.5 40.096 137.468 41.068 136.076 41.812C134.684 42.556 132.956 42.928 130.892 42.928H127.076V52H120.92V26.728H130.892C132.908 26.728 134.612 27.076 136.004 27.772C137.396 28.468 138.44 29.428 139.136 30.652C139.832 31.876 140.18 33.28 140.18 34.864ZM130.424 38.032C131.6 38.032 132.476 37.756 133.052 37.204C133.628 36.652 133.916 35.872 133.916 34.864C133.916 33.856 133.628 33.076 133.052 32.524C132.476 31.972 131.6 31.696 130.424 31.696H127.076V38.032H130.424ZM159.116 47.536H149.684L148.172 52H141.728L150.872 26.728H158L167.144 52H160.628L159.116 47.536ZM157.532 42.784L154.4 33.532L151.304 42.784H157.532ZM194.332 34.72C193.876 33.88 193.216 33.244 192.352 32.812C191.512 32.356 190.516 32.128 189.364 32.128C187.372 32.128 185.776 32.788 184.576 34.108C183.376 35.404 182.776 37.144 182.776 39.328C182.776 41.656 183.4 43.48 184.648 44.8C185.92 46.096 187.66 46.744 189.868 46.744C191.38 46.744 192.652 46.36 193.684 45.592C194.74 44.824 195.508 43.72 195.988 42.28H188.176V37.744H201.568V43.468C201.112 45.004 200.332 46.432 199.228 47.752C198.148 49.072 196.768 50.14 195.088 50.956C193.408 51.772 191.512 52.18 189.4 52.18C186.904 52.18 184.672 51.64 182.704 50.56C180.76 49.456 179.236 47.932 178.132 45.988C177.052 44.044 176.512 41.824 176.512 39.328C176.512 36.832 177.052 34.612 178.132 32.668C179.236 30.7 180.76 29.176 182.704 28.096C184.648 26.992 186.868 26.44 189.364 26.44C192.388 26.44 194.932 27.172 196.996 28.636C199.084 30.1 200.464 32.128 201.136 34.72H194.332ZM203.754 41.92C203.754 39.856 204.138 38.044 204.906 36.484C205.698 34.924 206.766 33.724 208.11 32.884C209.454 32.044 210.954 31.624 212.61 31.624C214.026 31.624 215.262 31.912 216.318 32.488C217.398 33.064 218.226 33.82 218.802 34.756V31.912H224.958V52H218.802V49.156C218.202 50.092 217.362 50.848 216.282 51.424C215.226 52 213.99 52.288 212.574 52.288C210.942 52.288 209.454 51.868 208.11 51.028C206.766 50.164 205.698 48.952 204.906 47.392C204.138 45.808 203.754 43.984 203.754 41.92ZM218.802 41.956C218.802 40.42 218.37 39.208 217.506 38.32C216.666 37.432 215.634 36.988 214.41 36.988C213.186 36.988 212.142 37.432 211.278 38.32C210.438 39.184 210.018 40.384 210.018 41.92C210.018 43.456 210.438 44.68 211.278 45.592C212.142 46.48 213.186 46.924 214.41 46.924C215.634 46.924 216.666 46.48 217.506 45.592C218.37 44.704 218.802 43.492 218.802 41.956ZM255.044 31.696C257.54 31.696 259.52 32.452 260.984 33.964C262.472 35.476 263.216 37.576 263.216 40.264V52H257.096V41.092C257.096 39.796 256.748 38.8 256.052 38.104C255.38 37.384 254.444 37.024 253.244 37.024C252.044 37.024 251.096 37.384 250.4 38.104C249.728 38.8 249.392 39.796 249.392 41.092V52H243.272V41.092C243.272 39.796 242.924 38.8 242.228 38.104C241.556 37.384 240.62 37.024 239.42 37.024C238.22 37.024 237.272 37.384 236.576 38.104C235.904 38.8 235.568 39.796 235.568 41.092V52H229.412V31.912H235.568V34.432C236.192 33.592 237.008 32.932 238.016 32.452C239.024 31.948 240.164 31.696 241.436 31.696C242.948 31.696 244.292 32.02 245.468 32.668C246.668 33.316 247.604 34.24 248.276 35.44C248.972 34.336 249.92 33.436 251.12 32.74C252.32 32.044 253.628 31.696 255.044 31.696ZM286.457 41.632C286.457 42.208 286.421 42.808 286.349 43.432H272.417C272.513 44.68 272.909 45.64 273.605 46.312C274.325 46.96 275.201 47.284 276.233 47.284C277.769 47.284 278.837 46.636 279.437 45.34H285.989C285.653 46.66 285.041 47.848 284.153 48.904C283.289 49.96 282.197 50.788 280.877 51.388C279.557 51.988 278.081 52.288 276.449 52.288C274.481 52.288 272.729 51.868 271.193 51.028C269.657 50.188 268.457 48.988 267.593 47.428C266.729 45.868 266.297 44.044 266.297 41.956C266.297 39.868 266.717 38.044 267.557 36.484C268.421 34.924 269.621 33.724 271.157 32.884C272.693 32.044 274.457 31.624 276.449 31.624C278.393 31.624 280.121 32.032 281.633 32.848C283.145 33.664 284.321 34.828 285.161 36.34C286.025 37.852 286.457 39.616 286.457 41.632ZM280.157 40.012C280.157 38.956 279.797 38.116 279.077 37.492C278.357 36.868 277.457 36.556 276.377 36.556C275.345 36.556 274.469 36.856 273.749 37.456C273.053 38.056 272.621 38.908 272.453 40.012H280.157ZM297.877 52.288C296.125 52.288 294.565 51.988 293.197 51.388C291.829 50.788 290.749 49.972 289.957 48.94C289.165 47.884 288.721 46.708 288.625 45.412H294.709C294.781 46.108 295.105 46.672 295.681 47.104C296.257 47.536 296.965 47.752 297.805 47.752C298.573 47.752 299.161 47.608 299.569 47.32C300.001 47.008 300.217 46.612 300.217 46.132C300.217 45.556 299.917 45.136 299.317 44.872C298.717 44.584 297.745 44.272 296.401 43.936C294.961 43.6 293.761 43.252 292.801 42.892C291.841 42.508 291.013 41.92 290.317 41.128C289.621 40.312 289.273 39.22 289.273 37.852C289.273 36.7 289.585 35.656 290.209 34.72C290.857 33.76 291.793 33.004 293.017 32.452C294.265 31.9 295.741 31.624 297.445 31.624C299.965 31.624 301.945 32.248 303.385 33.496C304.849 34.744 305.689 36.4 305.905 38.464H300.217C300.121 37.768 299.809 37.216 299.281 36.808C298.777 36.4 298.105 36.196 297.265 36.196C296.545 36.196 295.993 36.34 295.609 36.628C295.225 36.892 295.033 37.264 295.033 37.744C295.033 38.32 295.333 38.752 295.933 39.04C296.557 39.328 297.517 39.616 298.813 39.904C300.301 40.288 301.513 40.672 302.449 41.056C303.385 41.416 304.201 42.016 304.897 42.856C305.617 43.672 305.989 44.776 306.013 46.168C306.013 47.344 305.677 48.4 305.005 49.336C304.357 50.248 303.409 50.968 302.161 51.496C300.937 52.024 299.509 52.288 297.877 52.288Z" fill="#0E0E0E"/>
<path d="M59 62C71.7025 62 82 51.7025 82 39C82 35.8948 81.3846 32.9333 80.2692 30.2308L63.5 47H58L78.222 26.3653C74.1094 20.1212 67.036 16 59 16C46.2975 16 36 26.2975 36 39C36 43.5597 37.3269 47.8096 39.6156 51.3844L56 35H62.5L42.4885 55.0115C46.6687 59.3215 52.5216 62 59 62Z" fill="#4F71ED"/>
</svg>
